PathFileType	4	(X/Y/Z)	C:\My Captures\DataSMARTClinic\0004~001 ID\0004~aa~STRATO_01\Standing_STRATO_ID_01.trc
DataRate	CameraRate	NumFrames	NumMarkers	Units	OrigDataRate	OrigDataStartFrame	OrigNumFrames
250.00	250.00	5	22	mm	250.00	2017	2711
Frame#	Time	r.should			l.should			c7			r.asis			l.asis			sacrum			r.bar1			l.bar1			r.knee1			l.knee1			r.bar2			r.mall			l.bar2			l.mall			r.met			r.heel			l.heel			l.met			r.mallm			l.mallm			r.kneem			l.kneem			
		X1	Y1	Z1	X2	Y2	Z2	X3	Y3	Z3	X4	Y4	Z4	X5	Y5	Z5	X6	Y6	Z6	X7	Y7	Z7	X8	Y8	Z8	X9	Y9	Z9	X10	Y10	Z10	X11	Y11	Z11	X12	Y12	Z12	X13	Y13	Z13	X14	Y14	Z14	X15	Y15	Z15	X16	Y16	Z16	X17	Y17	Z17	X18	Y18	Z18	X19	Y19	Z19	X20	Y20	Z20	X21	Y21	Z21	X22	Y22	Z22	

2016	8.064000	880.752563	1283.622503	340.719819	842.092514	1282.374620	36.397763	773.194313	1346.065640	189.323381	932.996273	873.501539	344.583869	952.645659	874.477744	77.051111	738.427103	900.336802	193.534642	862.231016	786.179721	391.070396	893.251300	773.943722	16.232897	837.712884	438.423365	355.654567	848.046303	434.701294	37.388794	818.354845	377.978444	360.548556	810.067296	79.364374	332.376271	840.007722	367.507935	31.834036	818.717003	75.939901	48.924491	933.982849	43.966856	313.339651	750.196695	43.769587	291.605860	751.289368	42.658970	83.348751	944.871068	41.355941	83.396897	812.134087	76.103315	252.454638	822.185159	81.937015	126.046211	823.553383	410.464704	228.541434	838.942409	406.278491	163.880989	
2017	8.068000	880.751252	1283.608317	340.719283	842.095494	1282.377958	36.408383	773.179412	1346.067190	189.343289	932.987928	873.478413	344.588757	952.657640	874.475300	77.042125	738.435268	900.331259	193.528324	860.518634	785.655856	388.345003	893.254757	773.936033	16.197365	837.725282	438.423306	355.643302	848.029077	434.692919	37.379734	818.348765	377.976149	360.552222	810.041308	79.361752	332.378954	839.993060	367.501676	31.835891	818.710685	75.944901	48.922364	933.976531	43.972440	313.333839	750.159502	43.788649	291.603982	751.329422	42.637136	83.357133	944.863975	41.361194	83.397739	812.123179	76.104812	252.447009	822.188854	81.948705	126.047462	823.550940	410.456389	228.540078	838.915467	406.274110	163.878471	
2018	8.072000	880.766392	1283.591509	340.721607	842.096746	1282.372117	36.416069	773.194671	1346.078157	189.343929	932.966352	873.475671	344.579697	952.663183	874.478936	77.036150	738.440335	900.340080	193.519354	860.869050	785.733759	388.857365	893.243670	773.931921	16.185366	837.726593	438.420087	355.635017	848.051071	434.694439	37.377104	818.349302	377.977759	360.549569	810.038209	79.365529	332.379937	839.991033	367.491961	31.830486	818.700790	75.941838	48.919573	933.975101	43.975089	313.325256	750.192821	43.752566	291.595906	751.287699	42.676970	83.380088	944.863081	41.368160	83.396204	812.112868	76.102361	252.443433	822.191715	81.961185	126.047328	823.547244	410.451859	228.530437	838.911533	406.267673	163.874447	
2019	8.076000	880.776525	1283.579111	340.728045	842.083395	1282.371759	36.415949	773.204267	1346.085668	189.358965	932.959914	873.485029	344.563961	952.661932	874.472857	77.021629	738.437831	900.359094	193.512678	861.709297	786.013484	390.190989	893.232048	773.929536	16.158676	837.743938	438.431561	355.635464	848.064661	434.691399	37.365507	818.347692	377.981454	360.550255	810.038209	79.371154	332.380414	840.012670	367.496014	31.819161	818.698168	75.939812	48.916787	933.981419	43.983139	313.323587	750.223160	43.767069	291.595399	751.249373	42.692900	83.380513	944.871724	41.373890	83.391063	812.108874	76.111339	252.440989	822.201252	81.969768	126.036316	823.571205	410.461158	228.520662	838.913381	406.262398	163.868949	
2020	8.080000	880.772948	1283.560038	340.725601	842.070282	1282.361269	36.427677	773.219585	1346.087813	189.358667	932.963431	873.484015	344.557643	952.666342	874.454498	77.018827	738.447249	900.367737	193.508372	861.216664	785.859346	389.316678	893.241763	773.933172	16.155899	837.697148	438.423991	355.627120	848.073244	434.677690	37.361890	818.356991	377.974868	360.542506	810.044408	79.372995	332.370490	840.028167	367.511481	31.806722	818.701625	75.944513	48.906118	933.992028	43.989811	313.319266	750.227213	43.783948	291.588068	751.247227	42.706370	83.367825	944.876671	41.366566	83.382607	812.113762	76.116651	252.437264	822.214365	81.969649	126.028508	823.597252	410.468102	228.503689	838.924646	406.250864	163.857386	
